<?xml version="1.0" standalone="no"?>
<!DOCTYPE svg PUBLIC "-//W3C//DTD SVG 20010904//EN"
 "http://www.w3.org/TR/2001/REC-SVG-20010904/DTD/svg10.dtd">
<svg version="1.0" xmlns="http://www.w3.org/2000/svg"
 width="300.000000pt" height="300.000000pt" viewBox="0 0 300.000000 300.000000"
 preserveAspectRatio="xMidYMid meet">
<metadata>
Created by potrace 1.11, written by Peter Selinger 2001-2013
</metadata>
<g transform="translate(0.000000,300.000000) scale(0.100000,-0.100000)"
fill="#000000" stroke="none">
<path d="M1905 2889 c-87 -12 -119 -18 -170 -34 -41 -12 -114 -15 -386 -15
l-336 0 -1 -447 c-1 -247 -1 -462 -2 -479 l0 -31 -95 0 c-53 0 -98 4 -101 8
-3 5 -6 221 -6 479 l-1 470 -349 0 -348 0 0 -1340 0 -1340 349 0 349 0 -1 560
c-1 308 0 560 3 561 3 1 49 2 103 3 l97 2 1 -45 c0 -26 0 -279 1 -564 l1 -518
361 1 c335 1 368 0 440 -19 130 -34 273 -43 433 -28 235 22 453 131 546 272
24 37 71 155 62 155 -3 0 0 11 5 24 20 54 30 322 16 466 -34 364 -131 487
-631 800 -194 121 -236 155 -266 212 -37 72 -45 247 -15 320 29 69 95 96 156
65 44 -22 53 -58 56 -230 2 -88 5 -162 8 -164 3 -3 474 -6 607 -4 l35 1 -2
128 c-4 295 -37 431 -126 524 -101 105 -253 171 -468 203 -63 10 -265 12 -325
4z m-78 -1561 c147 -97 283 -199 320 -238 27 -29 45 -69 59 -134 3 -12 7 -73
10 -136 4 -93 1 -124 -13 -165 -30 -83 -102 -115 -178 -79 -52 24 -57 52 -62
309 -3 127 -7 232 -9 234 -2 2 -48 4 -101 3 -156 -1 -143 -15 -141 143 1 74 3
135 4 135 2 0 52 -32 111 -72z"/>
</g>
</svg>
